<?xml version="1.0" encoding="UTF-8"?>
<svg width="100pt" height="100pt" version="1.1" viewBox="0 0 100 100" xmlns="http://www.w3.org/2000/svg">
 <path d="m50.09 32.699c3.8398 0 4.8789 7.3906 4.8789 7.3906 4.6797-15.34-4.8789-22.391-4.8789-22.391s-9.5586 7.0508-4.8789 22.391c0 0 1.0391-7.3906 4.8789-7.3906z"/>
 <path d="m45.211 40.59c-0.21875 0-0.41406-0.14062-0.48047-0.35156-4.7188-15.512 5-22.871 5.0586-22.941v0.003906c0.17969-0.13281 0.42188-0.13281 0.60156 0 0.089844 0.070313 9.7812 7.4297 5.0586 22.941v-0.003907c-0.070313 0.22266-0.28516 0.36719-0.51953 0.35156-0.23438-0.015625-0.42188-0.19922-0.44922-0.42969 0-0.070312-1-7-4.3906-7s-4.3789 6.8906-4.3906 7c-0.027344 0.23438-0.22266 0.41797-0.46094 0.42969zm4.8789-22.25c-1.5 1.2812-7.8281 7.4883-4.9414 19.641 0.64062-2.3203 2.0703-5.7812 4.9414-5.7812s4.3008 3.4609 4.9102 5.8008c2.9102-12.18-3.4102-18.379-4.9102-19.66z"/>
 <path d="m77.359 48.461s1-6.8281 6.9102-8.3711c3.4688-0.96484 6.1055-3.793 6.832-7.3203 0 0 6 17.441-6.8711 22.602 0 0 3.4609-5.8594 2.3398-10.18 0 0-5.7891-0.49219-9.2109 3.2695z"/>
 <path d="m84.23 55.871c-0.14453-0.003906-0.28125-0.0625-0.37891-0.17188-0.125-0.17188-0.125-0.40625 0-0.57812 0-0.058594 3.1484-5.4102 2.3711-9.4492-1.2812 0-5.7109 0.12109-8.4414 3.1289-0.14844 0.16016-0.38672 0.20703-0.58203 0.10938-0.19922-0.089844-0.31641-0.30469-0.27734-0.51953 0-0.28906 1.1602-7.1797 7.2695-8.7812 3.2969-0.89453 5.8008-3.5781 6.4688-6.9297 0.042969-0.22266 0.22656-0.38672 0.44922-0.41016 0.23047-0.019531 0.44922 0.12109 0.51953 0.33984 0.058594 0.17188 6 18-7.1602 23.219-0.074219 0.039063-0.15625 0.054687-0.23828 0.042969zm1.6289-11.211c0.25-0.015625 0.5-0.015625 0.75 0 0.21484 0.011719 0.39062 0.16406 0.44141 0.37109 0.83984 3.25-0.71875 7.2109-1.6914 9.2383 8.5391-4.5117 6.7383-15.621 5.7188-19.77-1.1328 2.9609-3.625 5.1914-6.6875 6-3.7695 1-5.4414 4.3594-6.1211 6.3789 2.2383-1.5078 4.8906-2.2852 7.5898-2.2188z"/>
 <path d="m62.16 41.68s-1.3594-9.7812 5.6484-14.91c7.0117-5.1289 5.75-7.5898 5.75-7.5898s7.7422 17.289-2.5586 24.891c0 0 1.6719-6 0.10156-9.4492-0.050781 0-4.3906 0.097656-8.9414 7.0586z"/>
 <path d="m71 44.57c-0.15625 0-0.30469-0.074218-0.40234-0.19922-0.09375-0.125-0.12891-0.28906-0.085937-0.44141 0 0 1.5-5.4297 0.26953-8.7695-1.0586 0.19922-4.5391 1.2617-8.1602 6.7891-0.10938 0.17969-0.32031 0.26953-0.51953 0.22266-0.20703-0.046875-0.36328-0.21484-0.39062-0.42188-0.058594-0.41016-1.3203-10.141 5.8516-15.379 6.3203-4.6211 5.6289-6.8789 5.6016-7h-0.003906c-0.10938-0.25-0.003906-0.53906 0.23828-0.66016 0.23437-0.10547 0.51172-0.027344 0.65234 0.1875l-0.050781 0.10156c0.44922 1 7.4805 17.898-2.8008 25.441-0.054688 0.058594-0.12109 0.10547-0.19922 0.12891zm0.10156-10.449c0.19531-0.003906 0.375 0.10938 0.45703 0.28906 1.1484 2.5703 0.66016 6.2891 0.26172 8.3281 6.5391-6.1211 3.5508-17.211 2-21.551-0.60156 1.3711-2.1094 3.3594-5.6992 6-5.1406 3.7695-5.6094 10.219-5.5391 13 4.3281-5.9297 8.3008-6.1016 8.4805-6.1016z"/>
 <path d="m22.641 48.512s-1.0508-6.8281-6.9102-8.3711c-3.4688-0.96484-6.1055-3.793-6.832-7.3203 0 0-6 17.441 6.8711 22.602 0 0-3.4609-5.8594-2.3398-10.191 0 0 5.7891-0.49219 9.2109 3.2812z"/>
 <path d="m15.77 55.922c-0.0625 0.011719-0.12891 0.011719-0.19141 0-13.156-5.3203-7.2188-23.094-7.1562-23.273 0.074219-0.21484 0.28906-0.35156 0.51953-0.32813 0.22266 0.023438 0.40625 0.1875 0.44922 0.41016 0.66406 3.3516 3.1719 6.0352 6.4688 6.9297 6.1094 1.6016 7.2305 8.4805 7.2695 8.7812 0.039063 0.21484-0.078125 0.42969-0.27734 0.51953-0.19922 0.097656-0.43359 0.050781-0.58203-0.10938-2.7305-3-7.1484-3.1602-8.4414-3.1289-0.78125 4 2.3398 9.3906 2.3711 9.4414v-0.003906c0.089843 0.15625 0.089843 0.34375 0 0.5-0.085938 0.15625-0.25 0.25391-0.42969 0.26172zm-6.8477-21.344c-1 4.1484-2.8203 15.262 5.7188 19.77-1-2-2.5312-6-1.6914-9.2383 0.050781-0.20703 0.22656-0.35547 0.44141-0.37109 2.9531-0.1875 5.8867 0.60547 8.3398 2.2617-0.69141-2-2.3594-5.3984-6.1211-6.3906-3.0742-0.80859-5.5664-3.0547-6.6875-6.0312z"/>
 <path d="m37.84 41.73s1.3594-9.7305-5.6484-14.91c-7.0117-5.1797-5.75-7.5898-5.75-7.5898s-7.7422 17.281 2.6094 24.891c0 0-1.6719-5.9492-0.10156-9.4492 0.050781 0 4.3398 0.097656 8.8906 7.0586z"/>
 <path d="m29.051 44.621c-0.10547-0.003906-0.20703-0.039063-0.28906-0.10156-10.281-7.5195-3.25-24.391-2.7617-25.441v-0.078125c0.058594-0.12109 0.16016-0.21094 0.28906-0.25391 0.125-0.042969 0.26172-0.035156 0.38281 0.023437 0.24219 0.12109 0.34766 0.41016 0.23828 0.66016 0 0.14844-0.60938 2.3984 5.6094 6.9414 7.1719 5.25 5.9102 15 5.8516 15.391-0.03125 0.20312-0.1875 0.37109-0.39062 0.41797-0.20312 0.042968-0.41016-0.042969-0.51953-0.21875-3.6211-5.5195-7.1016-6.5898-8.1602-6.7891-1.2305 3.3398 0.25 8.7188 0.26953 8.7695 0.039063 0.15234 0.007813 0.3125-0.089843 0.4375-0.09375 0.125-0.24219 0.19922-0.40234 0.19922zm-2.8516-23.383c-1.5195 4.3398-4.5117 15.43 2 21.551-0.39844-2-0.89062-5.7617 0.26172-8.3281 0.082031-0.18359 0.26953-0.30078 0.46875-0.28906 0.17969 0 4.1406 0.17188 8.4805 6.0898 0.058594-2.8281-0.41016-9.2812-5.5391-13-3.5625-2.6602-5.0703-4.6523-5.6719-6.0234z"/>
 <path d="m77.941 56.102c0-5.6406-12.469-10.219-27.852-10.219-15.379-0.003906-27.852 4.5781-27.852 10.219 0 2.3516 2.1602 4.5195 5.8008 6.2383v11.66s-1.4609 8.3008 22.051 8.3008c23.512 0 22-8.3008 22-8.3008v-11.66c3.6797-1.7188 5.8516-3.8906 5.8516-6.2383zm-42.941 19.219c-1.2852 0.003907-2.4492-0.76953-2.9453-1.957-0.49609-1.1875-0.22656-2.5586 0.68359-3.4688 0.91016-0.91016 2.2773-1.1836 3.4648-0.69531 1.1914 0.49219 1.9688 1.6523 1.9688 2.9414 0 0.84375-0.33203 1.6523-0.92578 2.2461-0.59766 0.59766-1.4023 0.93359-2.2461 0.93359zm10 2c-1.2852 0-2.4492-0.77734-2.9375-1.9648-0.49219-1.1914-0.21875-2.5586 0.69141-3.4688 0.91406-0.90625 2.2812-1.1758 3.4688-0.68359 1.1875 0.49609 1.9609 1.6602 1.957 2.9453 0.011718 1.7344-1.3672 3.1523-3.1016 3.1914zm10 0c-1.2852 0-2.4492-0.77734-2.9375-1.9648-0.49219-1.1914-0.21875-2.5586 0.69141-3.4688 0.91406-0.90625 2.2812-1.1758 3.4688-0.68359 1.1875 0.49609 1.9609 1.6602 1.957 2.9453 0.011718 1.7305-1.3633 3.1484-3.0898 3.1914zm10-2c-1.2852 0.003907-2.4492-0.76953-2.9453-1.957-0.49609-1.1875-0.22656-2.5586 0.68359-3.4688 0.91016-0.91016 2.2773-1.1836 3.4648-0.69531 1.1914 0.49219 1.9688 1.6523 1.9688 2.9414 0 1.6992-1.3359 3.0977-3.0312 3.1797z"/>
 <path d="m50.09 82.801c-13.871 0-19.219-2.9102-21.27-5.3516-0.90625-0.94531-1.3672-2.2344-1.2695-3.5391v-11.25c-3.7891-1.8594-5.8008-4.1211-5.8008-6.5586 0-6 12.449-10.719 28.352-10.719 15.898-0.003906 28.34 4.707 28.34 10.719 0 2.4414-2 4.6992-5.8086 6.5586l-0.003906 11.34c0.074219 1.2773-0.38281 2.5273-1.2695 3.4492-2.0508 2.4414-7.3594 5.3516-21.27 5.3516zm0-36.422c-14.82 0-27.352 4.4492-27.352 9.7188 0 2.0586 2 4.1094 5.5195 5.7891l0.003907 0.003906c0.17188 0.082031 0.27734 0.25781 0.27734 0.44922v11.66c-0.058593 1.0664 0.33594 2.1055 1.0898 2.8594 1.9297 2.25 7 4.9414 20.461 4.9414 13.461 0 18.531-2.6914 20.461-5 0.73047-0.73438 1.125-1.7383 1.0898-2.7695v-11.691c0-0.19531 0.11328-0.37109 0.28906-0.44922 3.5586-1.6797 5.5195-3.7383 5.5195-5.7891-0.007813-5.2734-12.539-9.7227-27.359-9.7227zm5 31.461c-1.4883 0-2.832-0.89844-3.4023-2.2734-0.56641-1.375-0.25-2.9609 0.80469-4.0117 1.0547-1.0508 2.6367-1.3633 4.0117-0.79297 1.375 0.57422 2.2695 1.918 2.2656 3.4102-0.003906 2.0273-1.6523 3.668-3.6797 3.668zm0-6.3516c-1.082 0-2.0625 0.65625-2.4766 1.6562-0.41406 1-0.18359 2.1523 0.58203 2.9219 0.76563 0.76562 1.918 0.99609 2.9219 0.57812 1-0.41406 1.6523-1.3906 1.6523-2.4727 0-0.71094-0.28125-1.3945-0.78516-1.8984-0.5-0.5-1.1836-0.78516-1.8945-0.78516zm-10 6.3516c-1.4883 0-2.832-0.89844-3.4023-2.2734-0.56641-1.375-0.25-2.9609 0.80469-4.0117 1.0547-1.0508 2.6367-1.3633 4.0117-0.79297 1.375 0.57422 2.2695 1.918 2.2656 3.4102-0.003906 0.97266-0.39062 1.9102-1.0859 2.5977-0.69141 0.6875-1.6289 1.0742-2.6055 1.0703zm0-6.3516c-1.082 0-2.0625 0.65625-2.4766 1.6562-0.41406 1-0.18359 2.1523 0.58203 2.9219 0.76563 0.76562 1.918 0.99609 2.9219 0.57812 1-0.41406 1.6523-1.3906 1.6523-2.4727 0-0.71484-0.28516-1.3984-0.78906-1.9023-0.50391-0.5-1.1875-0.78125-1.9023-0.78125zm20.059 4.3281v0.003906c-1.4883 0.003907-2.832-0.89062-3.4062-2.2656-0.57031-1.375-0.25781-2.957 0.79297-4.0117 1.0508-1.0547 2.6328-1.3711 4.0117-0.80469 1.375 0.57031 2.2734 1.9141 2.2734 3.4023 0 2.0312-1.6484 3.6797-3.6797 3.6797zm0-6.3516v0.003906c-1.0859-0.003906-2.0664 0.64844-2.4844 1.6523-0.41406 1-0.1875 2.1562 0.58203 2.9258 0.76562 0.76562 1.9219 0.99609 2.9258 0.57812 1-0.41797 1.6523-1.3984 1.6484-2.4844-0.003906-1.4766-1.2031-2.6719-2.6797-2.6719zm-30.148 6.3555c-1.4883 0.003907-2.8359-0.89062-3.4062-2.2656-0.57422-1.375-0.26172-2.957 0.78906-4.0117 1.0547-1.0547 2.6367-1.3711 4.0117-0.80469 1.3789 0.57031 2.2773 1.9141 2.2773 3.4023 0 0.97266-0.38281 1.9102-1.0742 2.6016-0.6875 0.69141-1.6211 1.0781-2.5977 1.0781zm0-6.3516c-1.0859-0.003906-2.0664 0.64844-2.4844 1.6523-0.41797 1-0.1875 2.1562 0.57812 2.9258 0.76953 0.76562 1.9258 0.99609 2.9258 0.57812 1.0039-0.41797 1.6562-1.3984 1.6523-2.4844-0.007813-1.4727-1.1992-2.6641-2.6719-2.6719z"/>
</svg>
