<?xml version="1.0" encoding="UTF-8"?>
<svg width="100pt" height="100pt" version="1.1" viewBox="0 0 100 100" xmlns="http://www.w3.org/2000/svg">
 <g>
  <path d="m52 37.102v25.801c0 5.3984 4.3984 9.8008 9.8008 9.8008h25.801c5.3984 0 9.8008-4.3984 9.8008-9.8008l-0.003906-25.801c0-5.3984-4.3984-9.8008-9.8008-9.8008h-25.797c-5.4023 0-9.8008 4.3984-9.8008 9.8008zm27 4.0977 7.3984 7.3984c0.80078 0.80078 0.80078 2.1016 0 2.8008l-7.3984 7.4023c-0.39844 0.39844-0.89844 0.60156-1.3984 0.60156s-1-0.19922-1.3984-0.60156c-0.80078-0.80078-0.80078-2.1016 0-2.8008l4-4h-15.602c-1.1016 0-2-0.89844-2-2s0.89844-2 2-2h15.5l-4-4c-0.80078-0.80078-0.80078-2.1016 0-2.8008 0.79688-0.80078 2.0977-0.80078 2.8984 0z"/>
  <path d="m2.5 37.102v25.801c0 5.3984 4.3984 9.8008 9.8008 9.8008h25.801c5.3984 0 9.8008-4.3984 9.8008-9.8008l-0.003906-25.801c0-5.3984-4.3984-9.8008-9.8008-9.8008h-25.797c-5.4023 0-9.8008 4.3984-9.8008 9.8008zm21.398 4.0977c0.80078 0.80078 0.80078 2.1016 0 2.8008l-4 4h15.5c1.1016 0 2 0.89844 2 2s-0.89844 2-2 2h-15.5l4 4c0.80078 0.80078 0.80078 2.1016 0 2.8008-0.80078 0.80078-2.1016 0.80078-2.8008 0l-7.3984-7.3984c-0.80078-0.80078-0.80078-2.1016 0-2.8008l7.3984-7.3984c0.39844-0.39844 0.89844-0.60156 1.3984-0.60156 0.50391 0 1.0039 0.19922 1.4023 0.59766z"/>
 </g>
</svg>
