<?xml version="1.0" encoding="UTF-8"?>
<svg width="100pt" height="100pt" version="1.1" viewBox="0 0 100 100" xmlns="http://www.w3.org/2000/svg">
 <path d="m19.789 36.719c-4.4844-0.39453-7.8008-4.3555-7.4062-8.8438 0.39844-4.4883 4.3555-7.8086 8.8398-7.4141 4.4844 0.39844 7.8008 4.3555 7.4023 8.8438-0.39453 4.4922-4.3516 7.8086-8.8359 7.4141z"/>
 <path d="m52.352 21.871c0.83594-2.1367-0.21875-4.543-2.3516-5.3789-2.1367-0.83594-4.543 0.21875-5.375 2.3555-4.3711 11.191-12.934 15.07-22.004 19.18-4.9297 2.2344-10.027 4.543-14.121 8.0977-4.8359 4.2031-7.6055 9.5625-8.4688 16.391-0.28516 2.2773 1.3242 4.3516 3.5977 4.6406 2.2734 0.28516 4.3516-1.3242 4.6367-3.6016 0.86719-6.8906 4.1367-10.609 8.9766-13.57 1.3867 4.5898 2.7227 9.3672 2.1484 15.066-0.70703 7.0898-4.2969 14.523-10.973 22.738-1.6797 2.0703-1.3672 5.1094 0.69922 6.793 2.0664 1.6836 5.1055 1.3711 6.7891-0.69922 7.9023-9.7266 12.184-18.84 13.09-27.859 0.015625-0.16016 0.027344-0.32031 0.042968-0.48047l2.1133-0.63281c0.45312 6.9688-0.82812 14.539-5.6875 22.445-1.3945 2.2734-0.6875 5.2461 1.582 6.6445s5.2422 0.6875 6.6367-1.5859c5.6367-9.1719 7.9883-19.133 6.9922-29.605-0.79297-8.3516-3.4883-15.613-5.7812-21.543 6.9414-3.8789 13.527-9.3359 17.457-19.395z"/>
 <path d="m80.211 36.719c-4.4844 0.39453-8.4414-2.9219-8.8359-7.4141-0.39844-4.4883 2.918-8.4492 7.4023-8.8438 4.4844-0.39453 8.4414 2.9258 8.8359 7.4141 0.39844 4.4883-2.918 8.4492-7.4023 8.8438z"/>
 <path d="m99.965 62.52c-0.86328-6.8281-3.6328-12.191-8.4688-16.391-4.0938-3.5547-9.1914-5.8672-14.121-8.0977-9.0664-4.1094-17.629-7.9883-22.004-19.18-0.38281-0.98437-1.1016-1.7344-1.9727-2.1797 0.79297 1.0586 1.2344 2.3594 1.2344 3.6992 0 0.74219-0.13672 1.5-0.42187 2.2344-0.89453 2.2852-1.9219 4.332-3.043 6.1797 3.8203 5.8555 8.7773 9.6094 13.922 12.488-2.2891 5.9297-4.9844 13.191-5.7812 21.543-0.99609 10.473 1.3555 20.434 6.9922 29.605 1.3945 2.2734 4.3672 2.9805 6.6367 1.5859 2.2695-1.3945 2.9805-4.3711 1.582-6.6445-4.8594-7.9062-6.1406-15.48-5.6875-22.445l2.1133 0.63281c0.015626 0.16016 0.027344 0.31641 0.042969 0.48047 0.90625 9.0234 5.1875 18.137 13.09 27.859 1.6797 2.0703 4.7227 2.3828 6.7891 0.69922 2.0664-1.6836 2.3828-4.7227 0.69922-6.793-6.6602-8.2227-10.25-15.656-10.961-22.742-0.57422-5.6992 0.76172-10.477 2.1484-15.066 4.8398 2.9648 8.1094 6.6797 8.9766 13.57 0.28906 2.2734 2.3633 3.8867 4.6367 3.6016 2.2734-0.28906 3.8867-2.3633 3.5977-4.6406z"/>
 <path d="m50 4.332c-0.55078 0-1 0.44922-1 1v5.6719c0 0.55078 0.44531 1 1 1 0.55078 0 1-0.44922 1-1v-5.6719c0-0.55078-0.44922-1-1-1z"/>
 <path d="m43.598 6.7812c-0.27734-0.48047-0.88672-0.64453-1.3672-0.36719-0.47656 0.27734-0.64062 0.89063-0.36719 1.3672l2.8359 4.9141c0.27734 0.47656 0.88672 0.64063 1.3672 0.36719 0.47656-0.27734 0.64062-0.89062 0.36328-1.3672z"/>
 <path d="m57.77 6.418c-0.48047-0.27734-1.0898-0.11328-1.3672 0.36719l-2.8359 4.9141c-0.27734 0.47656-0.11328 1.0898 0.36719 1.3672 0.48047 0.27734 1.0898 0.11328 1.3672-0.36719l2.8359-4.9141c0.27344-0.48047 0.10938-1.0938-0.36719-1.3672z"/>
</svg>
