<?xml version="1.0" encoding="UTF-8"?>
<svg width="100pt" height="100pt" version="1.1" viewBox="0 0 100 100" xmlns="http://www.w3.org/2000/svg">
 <g>
  <path d="m46 90.078h-0.53125c-11.141-0.17188-21.488-5.7773-27.719-15.012s-7.5547-20.93-3.5469-31.324c4.0117-10.391 12.848-18.168 23.664-20.828 0.55469-0.13672 1.1328 0.089844 1.4414 0.57031 0.30859 0.46875 0.28516 1.082-0.0625 1.5273-4.9844 6.5859-7.3203 14.805-6.5391 23.031 0.78125 8.2227 4.625 15.855 10.762 21.383 6.1406 5.5312 14.129 8.5547 22.391 8.4727 1.0977 0 2.2031-0.09375 3.2891-0.21484 0.55859-0.0625 1.0977 0.23438 1.3438 0.73828 0.24609 0.50781 0.14844 1.1133-0.25 1.5156-6.3789 6.5156-15.121 10.172-24.242 10.141z"/>
  <path d="m63.664 33.355h-16.715c-1.0391 0.023437-2.0039-0.53125-2.5078-1.4414-0.58203-1.0664-0.39062-2.3906 0.47266-3.25l14.492-14.492h-13.172c-0.57812 0.023437-1.1445-0.1875-1.5625-0.58984-0.41797-0.40234-0.65625-0.95703-0.65625-1.5352 0-0.58203 0.23828-1.1367 0.65625-1.5391 0.41797-0.39844 0.98438-0.61328 1.5625-0.58594h16.715c1.0391-0.023437 2.0039 0.53125 2.5078 1.4375 0.58203 1.0703 0.39062 2.3945-0.47266 3.2539l-14.496 14.492h13.176c1.1367 0.046875 2.0352 0.98438 2.0352 2.125s-0.89844 2.0742-2.0352 2.125z"/>
  <path d="m86.211 42.641h-13.953c-0.90625 0.015625-1.7422-0.46875-2.1836-1.2578-0.50391-0.92969-0.33984-2.0781 0.40234-2.832l11.934-11.934h-10.762v0.003906c-1-0.046875-1.7891-0.87109-1.7891-1.875s0.78906-1.8281 1.7891-1.875h13.953c0.90234-0.015625 1.7422 0.46875 2.1836 1.2578 0.50391 0.92969 0.33984 2.0781-0.40234 2.832l-11.93 11.93h10.762-0.003906c1.0039 0.046875 1.7891 0.87109 1.7891 1.875s-0.78516 1.8281-1.7891 1.875z"/>
  <path d="m65.844 53.441h-10.645c-0.71484 0.007813-1.3867-0.35938-1.7578-0.97266-0.46094-0.77734-0.33203-1.7656 0.30469-2.4023l8.8594-8.8672h-7.875c-0.86719 0-1.5703-0.70312-1.5703-1.5703 0-0.86719 0.70312-1.5742 1.5703-1.5742h10.652c0.71875-0.007813 1.3867 0.35937 1.7617 0.97266 0.44531 0.77734 0.32031 1.7617-0.30859 2.4023l-8.8633 8.8633h7.8711c0.83984 0.042969 1.4961 0.73438 1.4961 1.5742 0 0.83984-0.65625 1.5312-1.4961 1.5742z"/>
 </g>
</svg>
