<?xml version="1.0" encoding="UTF-8"?>
<svg width="100pt" height="100pt" version="1.1" viewBox="0 0 100 100" xmlns="http://www.w3.org/2000/svg">
 <path d="m40.457 81.27c2.3398-3.3555 3.7617-7.4219 3.7617-11.793 0-11.387-9.25-20.535-20.535-20.535-11.281 0-20.535 9.25-20.535 20.535 0 11.387 9.2539 20.535 20.535 20.535 4.3711 0 8.4375-1.4219 11.793-3.7617l9.1484 9.9648 0.20312 0.20312c1.7266 1.5234 4.2695 1.4219 5.8945-0.20312 1.4219-1.6289 1.3203-4.168-0.30469-5.7969zm-16.875 3.3555c-8.3359 0-14.945-6.8125-14.945-15.047 0-8.3359 6.7109-15.047 15.047-15.047 8.3359 0 15.047 6.7109 15.047 15.047s-6.8125 15.047-15.148 15.047z"/>
 <path d="m23.582 59.312c-5.6914 0-10.266 4.5742-10.266 10.266 0 1.5234 1.2188 2.7461 2.7461 2.7461 1.5234 0 2.7461-1.2188 2.7461-2.7461 0-2.6445 2.1367-4.7773 4.7773-4.7773 1.5234 0 2.7461-1.2188 2.7461-2.7461 0.097657-1.5234-1.2227-2.7422-2.75-2.7422z"/>
 <path d="m86.293 2.5h-56.457c-5.8047 0-10.52 4.7539-10.52 10.559v31.598c1.4023-0.27344 2.8828-0.39062 4.3633-0.39062 13.051 0 23.844 9.9727 25.09 22.715h37.52c5.8047 0 10.559-4.7148 10.559-10.559l0.003906-43.363c0-5.8047-4.7539-10.559-10.559-10.559zm-3.4766 35.363h-9.1133l-6.7617 15.785c-0.49219 1.1484-1.6211 1.8867-2.8633 1.8867h-0.097656c-1.2812-0.042968-2.4062-0.86328-2.8398-2.0703l-9.8008-27.535-3.9531 9.9688c-0.47266 1.1875-1.6172 1.9688-2.8984 1.9688l-11.172-0.003907c-1.7227 0-3.1172-1.3945-3.1172-3.1172s1.3945-3.1172 3.1172-3.1172h9.0508l6.2305-15.703c0.48047-1.207 1.6484-1.9844 2.9531-1.9688 1.2969 0.023438 2.4453 0.84766 2.8828 2.0703l9.9102 27.852 4.4414-10.363c0.49219-1.1445 1.6172-1.8867 2.8633-1.8867h11.168c1.7227 0 3.1172 1.3945 3.1172 3.1172s-1.3945 3.1172-3.1172 3.1172z"/>
</svg>
