<?xml version="1.0" encoding="UTF-8"?>
<svg width="100pt" height="100pt" version="1.1" viewBox="0 0 100 100" xmlns="http://www.w3.org/2000/svg">
 <path d="m57.672 18.828c-1.5898-0.46875-3.2617 0.44141-3.7305 2.0312l-0.76953 2.6094c-0.23828-0.050781-0.48828-0.089844-0.73828-0.12891-10.461-1.5703-20.398 5.1797-23.391 15.328l-4.7305 15.449c-0.26953 0.92187-0.78906 1.7383-1.4883 2.3906l-8.9688 8.1992c-0.60938 0.55859-0.37109 1.5703 0.42188 1.8008l52.039 15.328c0.78906 0.23047 1.5391-0.48047 1.3398-1.2891l-3.0898-11.75c-0.23828-0.92969-0.23047-1.8984 0.039063-2.8203l4.7305-15.449c2.9297-9.9297-1.6016-20.559-10.48-25.129l0.83984-2.8516c0.46875-1.5898-0.44141-3.2617-2.0312-3.7305z"/>
 <path d="m35.961 86.109c5.0508 1.4883 10.359-1.3984 11.852-6.4492l-18.301-5.3906c-1.4883 5.0508 1.3984 10.359 6.4492 11.852z"/>
</svg>
