<?xml version="1.0" encoding="UTF-8"?>
<svg width="100pt" height="100pt" version="1.1" viewBox="0 0 100 100" xmlns="http://www.w3.org/2000/svg">
 <g>
  <path d="m92.445 81.707h-3v-27.965c0.003907-0.53125-0.20703-1.043-0.58203-1.418-0.375-0.37891-0.88672-0.58984-1.418-0.58984s-1.0391 0.21094-1.4141 0.58984c-0.375 0.375-0.58594 0.88672-0.58594 1.418v3.6562l-2.9688 1.1992c-0.57031 0.22656-1.1445 0.42969-1.7422 0.62891v-21.109c0.007813-1.582-0.61719-3.0977-1.7305-4.2188-1.1172-1.1211-2.6289-1.75-4.2109-1.75h-5.9688c-1.582 0-3.0977 0.62891-4.2109 1.75-1.1172 1.1211-1.7383 2.6367-1.7305 4.2188v13.855c0 2.5234 1.5898 4.7773 3.9688 5.625v5.6289c-2.6289 0.54297-5.2852 0.91406-7.9102 1.1992v-26.309c0-1.582-0.62891-3.1016-1.75-4.2227-1.1172-1.1172-2.6367-1.7461-4.2227-1.7461h-5.9375c-1.5859 0-3.1055 0.62891-4.2227 1.7461-1.1211 1.1211-1.75 2.6406-1.75 4.2227v13.855c0 2.5234 1.5898 4.7773 3.9727 5.625v7.168c-2.6562-0.14453-5.2852-0.39844-7.9102-0.80078v-25.852l-0.003906 0.003907c0.007812-1.582-0.61328-3.0977-1.7305-4.2188-1.1133-1.1211-2.6289-1.75-4.2109-1.75h-5.9688c-1.582 0-3.0938 0.62891-4.2109 1.75-1.1133 1.1211-1.7383 2.6367-1.7305 4.2188v13.855c0 2.5156 1.5742 4.7656 3.9414 5.625v3.1133c-1.9141-0.60156-3.8281-1.2852-5.7422-2.0273l-2.9141-1.1719 0.003907-3.7695c0-0.53125-0.21094-1.043-0.58594-1.418-0.375-0.37891-0.88281-0.58984-1.4141-0.58984s-1.043 0.21094-1.418 0.58984c-0.375 0.375-0.58594 0.88672-0.58203 1.418v27.965h-3c-0.53125-0.003906-1.043 0.20703-1.418 0.58203s-0.58984 0.88281-0.58984 1.4141 0.21484 1.043 0.58984 1.418 0.88672 0.58594 1.418 0.58203h84.891c0.53125 0.003906 1.043-0.20703 1.418-0.58203s0.58984-0.88672 0.58984-1.418-0.21484-1.0391-0.58984-1.4141-0.88672-0.58594-1.418-0.58203zm-69.238 0h-8.6523v-19.883l1.4297 0.57031c2.3984 0.94141 4.7969 1.7695 7.2266 2.5117zm21.824 0h-7.9141v-13.684c2.6289 0.37109 5.2852 0.62891 7.9102 0.74219zm21.824 0h-7.9141v-13.254c2.6289-0.25781 5.2852-0.65625 7.9102-1.1406zm18.594 0h-4.7148v-18.195c1.0859-0.39844 2.1719-0.80078 3.2266-1.2266l1.4844-0.60156z"/>
  <path d="m35.148 21.238c0.003906 2.8125-1.6836 5.3516-4.2812 6.4336-2.5977 1.082-5.5898 0.49219-7.582-1.4922-1.9961-1.9844-2.5938-4.9766-1.5234-7.5781 1.0703-2.6016 3.6016-4.3008 6.4141-4.3047 3.8438-0.007813 6.9609 3.1016 6.9727 6.9414z"/>
  <path d="m56.941 21.238c0 2.8047-1.6914 5.3359-4.2852 6.4102-2.5938 1.0742-5.5781 0.48047-7.5625-1.5039-1.9883-1.9844-2.582-4.9688-1.5078-7.5625 1.0742-2.5938 3.6055-4.2852 6.4141-4.2852 3.832 0.007813 6.9336 3.1094 6.9414 6.9414z"/>
  <path d="m78.762 21.238c0.007812 2.8125-1.6836 5.3555-4.2852 6.4375-2.6016 1.0781-5.5938 0.48438-7.5859-1.5078-1.9922-1.9883-2.5859-4.9844-1.5039-7.5859 1.0781-2.5977 3.6211-4.293 6.4375-4.2852 3.8281 0.007813 6.9297 3.1094 6.9375 6.9414z"/>
 </g>
</svg>
