<?xml version="1.0" encoding="UTF-8"?>
<svg id="Layer_1" xmlns="http://www.w3.org/2000/svg" version="1.1" viewBox="0 0 100 100">
  <!-- Generator: Adobe Illustrator 30.2.1, SVG Export Plug-In . SVG Version: 2.1.1 Build 1)  -->
  <g>
    <path d="M76.1,6.4c0-2.2-1.7-3.9-3.9-3.9H27.7c-2.1,0-3.8,1.7-3.8,3.9v3.1h52.2v-3.1Z"/>
    <path d="M83.9,19.5c0-2.8-2.2-5-5-5H21.1c-2.8,0-5,2.2-5,5v2h67.9v-2h-.1Z"/>
    <path d="M86,26.5H14c-3.4,0-6.2,2.8-6.2,6.2v58.5c0,3.4,2.8,6.2,6.2,6.2h72c3.4,0,6.2-2.8,6.2-6.2v-58.4c0-3.5-2.8-6.3-6.2-6.3h0ZM34.4,33c1.5,0,2.7,1.2,2.7,2.7s-1.2,2.7-2.7,2.7-2.7-1.2-2.7-2.7c.1-1.5,1.3-2.7,2.7-2.7ZM26.3,33c1.5,0,2.7,1.2,2.7,2.7s-1.2,2.7-2.7,2.7-2.7-1.2-2.7-2.7,1.2-2.7,2.7-2.7ZM18.2,33c1.5,0,2.7,1.2,2.7,2.7s-1.2,2.7-2.7,2.7-2.7-1.2-2.7-2.7,1.2-2.7,2.7-2.7ZM84.4,89.2c0,.3-.2.5-.5.5H16.1c-.3,0-.5-.2-.5-.5v-44.4h68.7v44.4h0Z"/>
  </g>
  <path d="M60.5,62.9l-15.5,20.7c-.2.3-.6.5-1,.5-.2,0-.4,0-.5-.1-.6-.3-.9-.9-.7-1.4l3.1-13.9h-5.3c-.4,0-.8-.2-1.1-.6-.2-.4-.3-.8-.1-1.2l6.9-15.5c.2-.5.7-.8,1.2-.8h8.6c.5,0,.9.2,1.1.6.2.4.2.9,0,1.3l-4.2,8.5h6.5c.5,0,.9.3,1.2.7.2.4.2,1-.1,1.4h0Z"/>
</svg>